HIERARCHY
ROOT Hips
{
  OFFSET 52.3395 84.3008 7.20305
  CHANNELS 6 Xposition Yposition Zposition Zrotation Xrotation Yrotation
  JOINT spine
  {
    OFFSET 0 5.95438 0.342407
    CHANNELS 3 Zrotation Xrotation Yrotation
    JOINT spine1
    {
      OFFSET 0 8.85602 0
      CHANNELS 3 Zrotation Xrotation Yrotation
      JOINT spine2
      {
        OFFSET 0 8.48567 0
        CHANNELS 3 Zrotation Xrotation Yrotation
        JOINT Neck
        {
          OFFSET 0 21.7863 1.0387
          CHANNELS 3 Zrotation Xrotation Yrotation
          JOINT Head
          {
            OFFSET 0 6.5822 0
            CHANNELS 3 Zrotation Xrotation Yrotation
            End Site
            {
              OFFSET 0 15.9326 -5.25436
            }
          }
        }
        JOINT RightShoulder
        {
          OFFSET -3.57307 9.16386 -0.497525
          CHANNELS 3 Zrotation Xrotation Yrotation
          JOINT RightArm
          {
            OFFSET 0 12.0192 0
            CHANNELS 3 Zrotation Xrotation Yrotation
            JOINT RightArmRoll
            {
              OFFSET 0 6.06755 0
              CHANNELS 3 Zrotation Xrotation Yrotation
              JOINT RightForeArm
              {
                OFFSET 0 17.6726 0
                CHANNELS 3 Zrotation Xrotation Yrotation
                JOINT RightForeArmRoll
                {
                  OFFSET 0 6.80873 0
                  CHANNELS 3 Zrotation Xrotation Yrotation
                  JOINT RightHand
                  {
                    OFFSET 0 13.6636 0
                    CHANNELS 3 Zrotation Xrotation Yrotation
                    End Site
                    {
                      OFFSET 0 0 0
                    }
                  }
                }
              }
            }
          }
        }
        JOINT LeftShoulder
        {
          OFFSET 3.57307 9.16386 -0.497525
          CHANNELS 3 Zrotation Xrotation Yrotation
          JOINT LeftArm
          {
            OFFSET 0 12.0192 0
            CHANNELS 3 Zrotation Xrotation Yrotation
            JOINT LeftArmRoll
            {
              OFFSET 0 6.06755 0
              CHANNELS 3 Zrotation Xrotation Yrotation
              JOINT LeftForeArm
              {
                OFFSET 0 17.6726 0
                CHANNELS 3 Zrotation Xrotation Yrotation
                JOINT LeftForeArmRoll
                {
                  OFFSET 0 6.80872 0
                  CHANNELS 3 Zrotation Xrotation Yrotation
                  JOINT LeftHand
                  {
                    OFFSET 0 13.6636 0
                    CHANNELS 3 Zrotation Xrotation Yrotation
                    End Site
                    {
                      OFFSET 0 0 0
                    }
                  }
                }
              }
            }
          }
        }
      }
    }
  }
  JOINT RightUpLeg
  {
    OFFSET -5.27774 -0.967797 -0.811858
    CHANNELS 3 Zrotation Xrotation Yrotation
    JOINT RightUpLegRoll
    {
      OFFSET 0 16.0214 0
      CHANNELS 3 Zrotation Xrotation Yrotation
      JOINT RightLeg
      {
        OFFSET 0 -19.8401 0
        CHANNELS 3 Zrotation Xrotation Yrotation
        JOINT RightLegRoll
        {
          OFFSET 0 19.905 0
          CHANNELS 3 Zrotation Xrotation Yrotation
          JOINT RightFoot
          {
            OFFSET 0 16.5675 0
            CHANNELS 3 Zrotation Xrotation Yrotation
            JOINT RightToeBase
            {
              OFFSET 0 13.8496 0
              CHANNELS 3 Zrotation Xrotation Yrotation
              End Site
              {
                OFFSET 0.00587034 6.70728 -0.773117
              }
            }
          }
        }
      }
    }
  }
  JOINT LeftUpLeg
  {
    OFFSET 5.27774 -0.967797 -0.811858
    CHANNELS 3 Zrotation Xrotation Yrotation
    JOINT LeftUpLegRoll
    {
      OFFSET 0 16.0215 0
      CHANNELS 3 Zrotation Xrotation Yrotation
      JOINT LeftLeg
      {
        OFFSET 0 19.84 0
        CHANNELS 3 Zrotation Xrotation Yrotation
        JOINT LeftLegRoll
        {
          OFFSET 0 20.089 0
          CHANNELS 3 Zrotation Xrotation Yrotation
          JOINT LeftFoot
          {
            OFFSET 0 16.3835 0
            CHANNELS 3 Zrotation Xrotation Yrotation
            JOINT LeftToeBase
            {
              OFFSET 0 13.8496 0
              CHANNELS 3 Zrotation Xrotation Yrotation
              End Site
              {
                OFFSET -0.0263083 6.70727 -0.773117
              }
            }
          }
        }
      }
    }
  }
}
MOTION
Frames: 13
Frame Time: 0.00208333
52.8444 84.3038 4.92511 -1.26889 -10.0112 -4.47293 0.410373 -0.143302 0.0834694 0.845699 3.7165 0.121116 0.845406 5.36148 0.106911 -7.14966 22.8313 1.80026 4.11406 10.6086 -1.24314 72.0859 1.68921 -0.679559 107.484 14.4936 -7.3433 3.29267e-006 -7.31141e-007 1.38489e-006 -3.63427 -0.0184907 -1.99207 8.0626e-006 1.76914e-006 -3.01159 8.03008 -4.95138 0.697614 -67.421 -2.31537 2.16639 -115.391 17.7268 14.8474 -9.82092e-007 3.18639e-006 6.9869e-006 3.63787 -0.0249595 1.9924 1.44746e-005 -1.24087e-006 3.01161 -8.03009 -4.95136 -0.697635 178.937 -3.44936 3.88502 180 7.01522e-015 178.82 176.768 6.96856 179.942 1.62963e-007 2.19174e-006 0.0728784 -18.0821 67.2449 18.9297 8.13649 25.2327 -3.48774 -178.077 -3.9251 -1.22 4.54188e-006 -4.6773e-006 -1.20396 -2.45269 -11.8933 0.0584331 6.25173e-006 -5.92696e-006 -0.201078 20.2197 69.8638 -21.2205 -8.13649 25.2327 3.48774 
52.8283 84.3078 4.94503 -1.26983 -10.0134 -4.47956 0.410393 -0.143291 0.0834693 0.843904 3.71653 0.121247 0.843611 5.36151 0.107085 -7.1398 22.8162 1.79777 4.1031 10.6009 -1.2405 72.1004 1.70855 -0.672329 107.444 14.466 -7.29707 3.29267e-006 -7.31141e-007 1.38489e-006 -3.63427 -0.0184907 -1.99207 8.0626e-006 1.76914e-006 -3.01159 8.03008 -4.95138 0.697614 -67.4078 -2.32827 2.17201 -115.375 17.7089 14.8255 -9.82092e-007 3.18639e-006 6.9869e-006 3.63787 -0.0249595 1.9924 1.44746e-005 -1.24087e-006 3.01161 -8.03009 -4.95136 -0.697635 178.936 -3.45337 3.8861 180 7.01522e-015 178.82 176.768 6.96925 179.942 1.62963e-007 2.19174e-006 0.0728784 -18.0826 67.2455 18.9302 8.13649 25.2327 -3.48774 -178.076 -3.93463 -1.22193 4.54188e-006 -4.6773e-006 -1.20396 -2.45505 -11.8859 0.0582532 6.25173e-006 -5.92696e-006 -0.201078 20.2257 69.8698 -21.2269 -8.13649 25.2327 3.48774 
52.8412 84.3058 4.93852 -1.27075 -10.016 -4.48658 0.410376 -0.143181 0.0834683 0.841926 3.71676 0.121391 0.841633 5.36174 0.107276 -7.12869 22.801 1.79502 4.09086 10.5931 -1.23759 72.1157 1.72872 -0.664812 107.403 14.4387 -7.25079 3.29267e-006 -7.31141e-007 1.38489e-006 -3.63427 -0.0184907 -1.99207 8.0626e-006 1.76914e-006 -3.01159 8.03008 -4.95138 0.697614 -67.3934 -2.34143 2.17767 -115.36 17.6909 14.8047 -9.82092e-007 3.18639e-006 6.9869e-006 3.63787 -0.0249595 1.9924 1.44746e-005 -1.24087e-006 3.01161 -8.03009 -4.95136 -0.697635 178.935 -3.45781 3.88734 180 7.01522e-015 178.82 176.767 6.97004 179.942 1.62963e-007 2.19174e-006 0.0728784 -18.0831 67.2461 18.9307 8.13649 25.2327 -3.48774 -178.075 -3.94495 -1.22366 4.54188e-006 -4.6773e-006 -1.20397 -2.45725 -11.8781 0.0580923 6.25173e-006 -5.92696e-006 -0.201078 20.2321 69.8761 -21.2337 -8.13649 25.2327 3.48774 
52.8397 84.3095 4.9426 -1.27166 -10.019 -4.49386 0.410333 -0.143001 0.0834668 0.83982 3.71713 0.121542 0.839526 5.36212 0.107479 -7.1167 22.7858 1.79209 4.07773 10.5852 -1.23448 72.1314 1.74946 -0.657094 107.363 14.4116 -7.20447 3.29267e-006 -7.31141e-007 1.38489e-006 -3.63427 -0.0184907 -1.99207 8.0626e-006 1.76914e-006 -3.01159 8.03008 -4.95138 0.697614 -67.3783 -2.35478 2.18337 -115.346 17.6728 14.7847 -9.82092e-007 3.18639e-006 6.9869e-006 3.63787 -0.0249595 1.9924 1.44746e-005 -1.24087e-006 3.01161 -8.03009 -4.95136 -0.697635 178.934 -3.46254 3.88871 180 7.01522e-015 178.82 176.767 6.9709 179.942 1.62963e-007 2.19174e-006 0.0728784 -18.0835 67.2467 18.9312 8.13649 25.2327 -3.48774 -178.074 -3.95583 -1.22524 4.54188e-006 -4.6773e-006 -1.20397 -2.45935 -11.87 0.0579447 6.25173e-006 -5.92696e-006 -0.201078 20.2387 69.8827 -21.2407 -8.13649 25.2327 3.48774 
52.8383 84.309 4.94663 -1.27257 -10.0221 -4.5013 0.410276 -0.142782 0.083465 0.83764 3.71758 0.121699 0.837345 5.36257 0.107689 -7.10422 22.7705 1.78906 4.06408 10.5772 -1.23127 72.1475 1.77054 -0.64926 107.322 14.3846 -7.15814 3.29267e-006 -7.31141e-007 1.38489e-006 -3.63427 -0.0184907 -1.99207 8.0626e-006 1.76914e-006 -3.01159 8.03008 -4.95138 0.697614 -67.3627 -2.36823 2.18908 -115.332 17.6545 14.7651 -9.82092e-007 3.18639e-006 6.9869e-006 3.63787 -0.0249595 1.9924 1.44746e-005 -1.24087e-006 3.01161 -8.03009 -4.95136 -0.697635 178.933 -3.46745 3.89014 180 7.01522e-015 178.82 176.766 6.97178 179.942 1.62963e-007 2.19174e-006 0.0728784 -18.084 67.2473 18.9318 8.13649 25.2327 -3.48774 -178.074 -3.96702 -1.22675 4.54188e-006 -4.6773e-006 -1.20397 -2.46137 -11.8617 0.0578047 6.25173e-006 -5.92696e-006 -0.201078 20.2455 69.8894 -21.248 -8.13649 25.2327 3.48774 
52.8351 84.3054 4.95158 -1.27347 -10.0253 -4.50877 0.410216 -0.142553 0.083463 0.835442 3.71806 0.121857 0.835147 5.36304 0.1079 -7.09161 22.7553 1.78601 4.05031 10.5692 -1.22802 72.1637 1.79169 -0.641397 107.281 14.3576 -7.11181 3.29267e-006 -7.31141e-007 1.38489e-006 -3.63427 -0.0184907 -1.99207 8.0626e-006 1.76914e-006 -3.01159 8.03008 -4.95138 0.697614 -67.347 -2.38171 2.19479 -115.318 17.6362 14.7456 -9.82092e-007 3.18639e-006 6.9869e-006 3.63787 -0.0249595 1.9924 1.44746e-005 -1.24087e-006 3.01161 -8.03009 -4.95136 -0.697635 178.932 -3.4724 3.8916 180 7.01522e-015 178.82 176.766 6.9727 179.942 1.62963e-007 2.19174e-006 0.0728784 -18.0845 67.248 18.9323 8.13649 25.2327 -3.48774 -178.073 -3.97829 -1.22823 4.54188e-006 -4.6773e-006 -1.20398 -2.46338 -11.8533 0.0576666 6.25173e-006 -5.92696e-006 -0.201078 20.2524 69.8962 -21.2553 -8.13649 25.2327 3.48774 
52.8359 84.3052 4.95481 -1.27437 -10.0284 -4.51617 0.410162 -0.142344 0.0834613 0.83328 3.71849 0.122013 0.832985 5.36347 0.108108 -7.07925 22.74 1.783 4.0368 10.5612 -1.22483 72.1797 1.81268 -0.633592 107.241 14.3305 -7.06551 3.29267e-006 -7.31141e-007 1.38489e-006 -3.63427 -0.0184907 -1.99207 8.0626e-006 1.76914e-006 -3.01159 8.03008 -4.95138 0.697614 -67.3315 -2.39514 2.2005 -115.305 17.618 14.7259 -9.82092e-007 3.18639e-006 6.9869e-006 3.63787 -0.0249595 1.9924 1.44746e-005 -1.24087e-006 3.01161 -8.03009 -4.95136 -0.697635 178.931 -3.47726 3.89301 180 7.01522e-015 178.82 176.766 6.97358 179.942 1.62963e-007 2.19174e-006 0.0728784 -18.085 67.2486 18.9328 8.13649 25.2327 -3.48774 -178.073 -3.9894 -1.22976 4.54188e-006 -4.6773e-006 -1.20398 -2.46542 -11.845 0.0575248 6.25173e-006 -5.92696e-006 -0.201078 20.2591 69.9029 -21.2625 -8.13649 25.2327 3.48774 
52.842 84.3037 4.95269 -1.27529 -10.0313 -4.52338 0.410127 -0.142185 0.0834599 0.831211 3.71882 0.122163 0.830914 5.3638 0.108308 -7.06753 22.7248 1.78013 4.02393 10.5533 -1.22178 72.1953 1.83326 -0.62593 107.2 14.3033 -7.01926 3.29267e-006 -7.31141e-007 1.38489e-006 -3.63427 -0.0184907 -1.99207 8.0626e-006 1.76914e-006 -3.01159 8.03008 -4.95138 0.697614 -67.3166 -2.40844 2.20619 -115.29 17.5998 14.7057 -9.82092e-007 3.18639e-006 6.9869e-006 3.63787 -0.0249595 1.9924 1.44746e-005 -1.24087e-006 3.01161 -8.03009 -4.95136 -0.697635 178.93 -3.48192 3.89435 180 7.01522e-015 178.82 176.765 6.97442 179.942 1.62963e-007 2.19174e-006 0.0728784 -18.0855 67.2492 18.9334 8.13649 25.2327 -3.48774 -178.072 -4.00012 -1.23138 4.54188e-006 -4.6773e-006 -1.20399 -2.46755 -11.837 0.0573734 6.25173e-006 -5.92696e-006 -0.201078 20.2657 69.9095 -21.2695 -8.13649 25.2327 3.48774 
52.8418 84.3045 4.95786 -1.27622 -10.0338 -4.53028 0.410121 -0.142104 0.0834592 0.829287 3.71899 0.122302 0.828991 5.36397 0.108494 -7.0568 22.7096 1.77746 4.01208 10.5455 -1.21895 72.2102 1.85319 -0.618499 107.16 14.2758 -6.97307 3.29267e-006 -7.31141e-007 1.38489e-006 -3.63427 -0.0184907 -1.99207 8.0626e-006 1.76914e-006 -3.01159 8.03008 -4.95138 0.697614 -67.3026 -2.42152 2.21184 -115.275 17.5818 14.6846 -9.82092e-007 3.18639e-006 6.9869e-006 3.63787 -0.0249595 1.9924 1.44746e-005 -1.24087e-006 3.01161 -8.03009 -4.95136 -0.697635 178.929 -3.48623 3.89554 180 7.01522e-015 178.82 176.765 6.97519 179.943 1.62963e-007 2.19174e-006 0.0728784 -18.086 67.2498 18.9339 8.13649 25.2327 -3.48774 -178.071 -4.0102 -1.23317 4.54188e-006 -4.6773e-006 -1.20399 -2.4698 -11.8293 0.0572069 6.25173e-006 -5.92696e-006 -0.201078 20.272 69.9157 -21.2762 -8.13649 25.2327 3.48774 
52.8469 84.3017 4.95699 -1.27718 -10.0358 -4.53676 0.410156 -0.142133 0.0834595 0.827566 3.71894 0.122429 0.827269 5.36392 0.10866 -7.04745 22.6945 1.77508 4.00164 10.5379 -1.21643 72.2244 1.8722 -0.611385 107.12 14.2479 -6.92698 3.29267e-006 -7.31141e-007 1.38489e-006 -3.63427 -0.0184907 -1.99207 8.0626e-006 1.76914e-006 -3.01159 8.03008 -4.95138 0.697614 -67.2898 -2.4343 2.21745 -115.258 17.564 14.6624 -9.82092e-007 3.18639e-006 6.9869e-006 3.63787 -0.0249595 1.9924 1.44746e-005 -1.24087e-006 3.01161 -8.03009 -4.95136 -0.697635 178.928 -3.49007 3.89655 180 7.01522e-015 178.82 176.765 6.97583 179.943 1.62963e-007 2.19174e-006 0.0728784 -18.0864 67.2504 18.9344 8.13649 25.2327 -3.48774 -178.07 -4.01942 -1.23518 4.54188e-006 -4.6773e-006 -1.20399 -2.47223 -11.8221 0.0570195 6.25173e-006 -5.92696e-006 -0.201078 20.2779 69.9215 -21.2824 -8.13649 25.2327 3.48774 
52.8439 84.3012 4.96037 -1.27816 -10.0371 -4.54271 0.410241 -0.142301 0.0834609 0.826101 3.71861 0.122538 0.825804 5.36359 0.108803 -7.03986 22.6795 1.77305 3.99299 10.5305 -1.2143 72.2374 1.89006 -0.604673 107.08 14.2196 -6.881 3.29267e-006 -7.31141e-007 1.38489e-006 -3.63427 -0.0184907 -1.99207 8.0626e-006 1.76914e-006 -3.01159 8.03008 -4.95138 0.697614 -67.2786 -2.44672 2.223 -115.24 17.5465 14.6386 -9.82092e-007 3.18639e-006 6.9869e-006 3.63787 -0.0249595 1.9924 1.44746e-005 -1.24087e-006 3.01161 -8.03009 -4.95136 -0.697635 178.928 -3.49331 3.89732 180 7.01522e-015 178.82 176.764 6.97636 179.943 1.62963e-007 2.19174e-006 0.0728784 -18.0868 67.2509 18.9348 8.13649 25.2327 -3.48774 -178.068 -4.02752 -1.23747 4.54188e-006 -4.6773e-006 -1.20399 -2.47488 -11.8154 0.0568056 6.25173e-006 -5.92696e-006 -0.201078 20.2832 69.9268 -21.2881 -8.13649 25.2327 3.48774 
52.8442 84.3045 4.96279 -1.27918 -10.0377 -4.548 0.410389 -0.142637 0.0834637 0.824948 3.71793 0.122626 0.824651 5.36291 0.108916 -7.03439 22.6646 1.77147 3.98651 10.5234 -1.21264 72.2491 1.90652 -0.598451 107.041 14.1907 -6.83515 3.29267e-006 -7.31141e-007 1.38489e-006 -3.63427 -0.0184907 -1.99207 8.0626e-006 1.76914e-006 -3.01159 8.03008 -4.95138 0.697614 -67.2693 -2.45867 2.22847 -115.22 17.5294 14.613 -9.82092e-007 3.18639e-006 6.9869e-006 3.63787 -0.0249595 1.9924 1.44746e-005 -1.24087e-006 3.01161 -8.03009 -4.95136 -0.697635 178.928 -3.49584 3.89781 180 7.01522e-015 178.82 176.764 6.97673 179.943 1.62963e-007 2.19174e-006 0.0728784 -18.0872 67.2514 18.9353 8.13649 25.2327 -3.48774 -178.066 -4.03428 -1.2401 4.54188e-006 -4.6773e-006 -1.20399 -2.47782 -11.8096 0.0565594 6.25173e-006 -5.92696e-006 -0.201078 20.2879 69.9314 -21.2931 -8.13649 25.2327 3.48774 
52.8499 84.3037 4.95995 -1.28023 -10.0373 -4.55253 0.410609 -0.143172 0.0834682 0.824162 3.71685 0.12269 0.823865 5.36183 0.108994 -7.03143 22.6497 1.77039 3.98259 10.5166 -1.21153 72.2594 1.92133 -0.592804 107.002 14.1611 -6.78946 3.29267e-006 -7.31141e-007 1.38489e-006 -3.63427 -0.0184907 -1.99207 8.0626e-006 1.76914e-006 -3.01159 8.03008 -4.95138 0.697614 -67.2622 -2.4701 2.23387 -115.197 17.5126 14.5853 -9.82092e-007 3.18639e-006 6.9869e-006 3.63787 -0.0249595 1.9924 1.44746e-005 -1.24087e-006 3.01161 -8.03009 -4.95136 -0.697635 178.928 -3.49751 3.89795 180 7.01522e-015 178.82 176.764 6.97689 179.943 1.62963e-007 2.19174e-006 0.0728784 -18.0876 67.2519 18.9357 8.13649 25.2327 -3.48774 -178.064 -4.03946 -1.24313 4.54188e-006 -4.6773e-006 -1.20399 -2.48107 -11.8046 0.0562754 6.25173e-006 -5.92696e-006 -0.201078 20.2918 69.9353 -21.2973 -8.13649 25.2327 3.48774 
